<svg xmlns="http://www.w3.org/2000/svg" width="71" height="24" fill="none"><path fill="#171717" fill-rule="evenodd" d="M7.457 2.5c-1.575 0-3.03.858-3.817 2.25l-2.827 5a4.582 4.582 0 0 0 0 4.5l2.827 5a4.391 4.391 0 0 0 3.817 2.25h5.654a4.39 4.39 0 0 0 3.816-2.25l2.827-5a4.583 4.583 0 0 0 0-4.5l-2.827-5a4.39 4.39 0 0 0-3.816-2.25H7.457Zm5.654 3H9.577c-.565 0-.919.625-.636 1.125.874 1.542 1.75 3.082 2.622 4.625a1.528 1.528 0 0 1 0 1.5c-.872 1.543-1.748 3.083-2.622 4.625-.283.5.07 1.125.636 1.125h3.534c.525 0 1.01-.286 1.272-.75l2.827-5a1.528 1.528 0 0 0 0-1.5l-2.827-5a1.464 1.464 0 0 0-1.272-.75Z" clip-rule="evenodd"/><path fill="#171717" d="M32.799 10.262h-2.221c-.252-.904-.886-1.39-1.785-1.39-1.362 0-2.142 1.161-2.142 3.051 0 1.903.767 3.024 2.142 3.024.846 0 1.507-.459 1.758-1.323H32.8c-.463 2.025-2.063 3.091-3.98 3.091-2.684 0-4.336-1.822-4.336-4.792 0-2.97 1.652-4.82 4.363-4.82 1.93 0 3.57 1.067 3.953 3.16Zm3.996 6.454c-2.155 0-3.49-1.458-3.49-3.847 0-2.47 1.374-3.861 3.49-3.861 2.155 0 3.503 1.485 3.503 3.86 0 2.458-1.388 3.848-3.503 3.848Zm0-1.674c.938 0 1.428-.756 1.428-2.173 0-1.404-.503-2.187-1.428-2.187-.926 0-1.415.77-1.415 2.187 0 1.404.502 2.173 1.415 2.173Zm4.309 1.458V9.237h2.022v1.013c.45-.864 1.137-1.242 1.864-1.242.291 0 .556.08.701.23v1.74a3.547 3.547 0 0 0-.806-.08c-1.217 0-1.759.702-1.759 1.85V16.5h-2.022Zm11.706-2.39c-.37 1.675-1.692 2.606-3.438 2.606-2.208 0-3.57-1.458-3.57-3.847 0-2.47 1.376-3.861 3.491-3.861 2.129 0 3.464 1.444 3.464 3.82v.46h-4.892c.106 1.16.635 1.781 1.507 1.781.661 0 1.111-.297 1.322-.958h2.116Zm-3.517-3.455c-.754 0-1.23.5-1.388 1.444h2.763c-.159-.945-.635-1.444-1.375-1.444Zm8.645 6.06c-2.79 0-4.508-1.835-4.508-4.792 0-2.97 1.718-4.82 4.508-4.82 2.776 0 4.495 1.85 4.495 4.82 0 2.957-1.719 4.792-4.495 4.792Zm0-1.768c1.468 0 2.327-1.134 2.327-3.024 0-1.89-.86-3.051-2.327-3.051-1.48 0-2.34 1.148-2.34 3.051 0 1.89.86 3.024 2.34 3.024Zm7.414-5.265c0 1.957 5.289.297 5.289 4.05 0 1.89-1.534 2.983-3.636 2.983-2.129 0-3.649-.998-3.966-3.091h2.234c.172.904.793 1.404 1.745 1.404.952 0 1.454-.392 1.454-1.026 0-2.052-5.301-.486-5.301-4.117 0-1.54 1.256-2.781 3.464-2.781 1.864 0 3.477.904 3.754 3.023h-2.26c-.185-.904-.701-1.336-1.574-1.336-.74 0-1.203.351-1.203.891Z"/></svg>