<svg xmlns="http://www.w3.org/2000/svg" width="120" height="36" fill="none"><path fill="#fff" fill-rule="evenodd" d="M15 30.852c1.402 0 2.752-.224 4.015-.64-1.288-.216-2.646-.653-4.014-1.296-1.369.643-2.726 1.08-4.015 1.297a12.84 12.84 0 0 0 4.014.64ZM2.788 22.017c.217-1.289.654-2.647 1.297-4.016-.643-1.37-1.08-2.728-1.298-4.016A12.84 12.84 0 0 0 2.147 18c0 1.403.225 2.753.64 4.017ZM5.49 20.51c-.12.35-.222.697-.307 1.036-.666 2.663-.178 4.491.801 5.47.98.979 2.807 1.467 5.47.802.34-.085.686-.188 1.037-.308a24.183 24.183 0 0 1-3.856-3.146A24.19 24.19 0 0 1 5.49 20.51ZM15 26.393c-1.607-.88-3.243-2.09-4.774-3.62-1.53-1.53-2.74-3.165-3.619-4.772.88-1.607 2.09-3.243 3.62-4.774 1.53-1.53 3.166-2.74 4.773-3.62 1.607.88 3.242 2.09 4.772 3.62 1.53 1.53 2.741 3.167 3.62 4.774-.879 1.607-2.089 3.242-3.619 4.772-1.53 1.53-3.166 2.74-4.773 3.62Zm9.51-5.883a24.19 24.19 0 0 1-3.146 3.854 24.19 24.19 0 0 1-3.855 3.146c.35.12.697.222 1.036.307 2.663.666 4.491.178 5.47-.801.979-.98 1.467-2.807.802-5.47-.085-.34-.188-.685-.308-1.036ZM25.915 18c.643-1.367 1.08-2.725 1.297-4.013a12.84 12.84 0 0 1 .64 4.013c0 1.402-.225 2.751-.64 4.014-.217-1.288-.654-2.645-1.297-4.013Zm-6.9-12.212c-1.289.216-2.646.654-4.015 1.297-1.37-.644-2.727-1.08-4.016-1.298A12.84 12.84 0 0 1 15 5.147c1.402 0 2.752.225 4.016.64Zm6.528 1.543A14.952 14.952 0 0 0 15 3C6.716 3 0 9.716 0 18c0 8.284 6.716 15 15 15a14.952 14.952 0 0 0 10.658-4.445A14.953 14.953 0 0 0 30 18a14.952 14.952 0 0 0-4.456-10.67ZM12.492 8.49c-.351-.12-.698-.223-1.037-.308-2.664-.666-4.491-.178-5.47.801-.98.98-1.468 2.807-.802 5.47.085.34.188.686.308 1.038a24.186 24.186 0 0 1 3.146-3.856 24.183 24.183 0 0 1 3.855-3.145Zm12.019 7.001a24.189 24.189 0 0 0-3.147-3.856A24.19 24.19 0 0 0 17.51 8.49c.351-.12.697-.223 1.037-.308 2.663-.666 4.49-.177 5.47.802.979.979 1.467 2.806.801 5.47-.085.34-.187.685-.307 1.037Z" clip-rule="evenodd"/><path fill="#fff" d="M41.044 14.524c0 2.936 8.1.446 8.1 6.075 0 2.835-2.35 4.475-5.569 4.475-3.26 0-5.589-1.498-6.075-4.637h3.422c.264 1.357 1.215 2.106 2.673 2.106s2.228-.587 2.228-1.539c0-3.078-8.12-.729-8.12-6.176 0-2.309 1.923-4.172 5.305-4.172 2.855 0 5.326 1.357 5.751 4.536h-3.463c-.283-1.357-1.073-2.005-2.41-2.005-1.134 0-1.842.527-1.842 1.337Zm12.391 14.702h-3.098v-15.37h3.098v1.134c.668-.952 1.6-1.478 2.734-1.478 2.814 0 4.576 2.207 4.576 5.771 0 3.706-1.802 5.791-4.576 5.791-1.155 0-2.086-.486-2.734-1.417v5.569Zm2.086-13.203c-1.377 0-2.086 1.154-2.086 3.26s.729 3.28 2.086 3.28c1.336 0 2.045-1.154 2.045-3.28 0-2.106-.73-3.26-2.045-3.26Zm6.454 8.727V10.17h3.098v5.123c.709-1.215 1.823-1.782 3.16-1.782 2.085 0 3.644 1.276 3.644 3.97v7.269H68.78v-6.642c0-1.377-.547-2.086-1.68-2.086-1.236 0-2.026 1.073-2.026 2.47v6.258h-3.098Zm21.865-3.584c-.567 2.511-2.592 3.909-5.265 3.909-3.382 0-5.467-2.188-5.467-5.772 0-3.706 2.106-5.791 5.346-5.791 3.26 0 5.305 2.166 5.305 5.73v.689h-7.492c.162 1.741.972 2.673 2.308 2.673 1.013 0 1.701-.445 2.025-1.438h3.24Zm-5.386-5.184c-1.155 0-1.884.75-2.127 2.167h4.233c-.243-1.418-.972-2.167-2.106-2.167Zm6.6 8.768V13.856h3.098v1.519c.689-1.296 1.742-1.863 2.855-1.863.446 0 .85.121 1.073.344v2.612a5.544 5.544 0 0 0-1.235-.121c-1.863 0-2.693 1.053-2.693 2.774v5.63h-3.098Zm14.543-4.637v-6.258h3.098V24.75h-3.098v-1.458c-.709 1.215-1.782 1.782-3.098 1.782-2.066 0-3.584-1.256-3.584-3.969v-7.25h3.098v6.622c0 1.398.526 2.086 1.62 2.086 1.195 0 1.964-1.053 1.964-2.45Zm4.798 4.637V10.17h3.098v14.58h-3.098Zm15.043-3.584c-.567 2.511-2.592 3.909-5.265 3.909-3.382 0-5.468-2.188-5.468-5.772 0-3.706 2.106-5.791 5.346-5.791 3.26 0 5.306 2.166 5.306 5.73v.689h-7.493c.162 1.741.972 2.673 2.309 2.673 1.012 0 1.701-.445 2.025-1.438h3.24Zm-5.387-5.184c-1.154 0-1.883.75-2.126 2.167h4.232c-.243-1.418-.972-2.167-2.106-2.167Z"/></svg>