<svg xmlns="http://www.w3.org/2000/svg" width="105" height="48" fill="none"><path fill="#fff" d="M26.951 33.984c-5.026 3.189-11.763 2.59-16.147-1.794C6.419 27.806 5.82 21.07 9.01 16.043l-4.314-4.314C-.796 19.165-.174 29.698 6.56 36.433c6.735 6.735 17.268 7.357 24.704 1.865l-4.314-4.314ZM13.04 12.012c5.026-3.189 11.764-2.591 16.148 1.794 4.385 4.384 4.983 11.122 1.794 16.148l4.314 4.314c5.492-7.436 4.87-17.97-1.865-24.705-6.735-6.735-17.269-7.357-24.705-1.865l4.314 4.314Z"/><path fill="#fff" d="M29.188 13.805C24.804 9.42 18.066 8.822 13.04 12.012L10.878 9.85a16.094 16.094 0 0 0-4.03 4.03l2.162 2.162c-3.19 5.026-2.591 11.763 1.793 16.148 4.385 4.384 11.122 4.982 16.148 1.794l2.166 2.166a16.103 16.103 0 0 0 4.03-4.03l-2.165-2.167c3.189-5.026 2.59-11.764-1.794-16.148Z" opacity=".2"/><path fill="#fff" d="M58.444 33.337c-1.493 0-2.875-.262-4.144-.785a10.4 10.4 0 0 1-3.304-2.183 9.94 9.94 0 0 1-2.212-3.248C48.261 25.87 48 24.526 48 23.088c0-1.456.261-2.8.784-4.032a9.84 9.84 0 0 1 2.184-3.22 9.717 9.717 0 0 1 3.276-2.156c1.27-.523 2.65-.784 4.144-.784 1.475 0 2.837.26 4.088.784a9.653 9.653 0 0 1 3.304 2.155 9.565 9.565 0 0 1 2.212 3.248c.523 1.233.784 2.576.784 4.032 0 1.438-.261 2.782-.784 4.032a10.159 10.159 0 0 1-2.184 3.248 10.228 10.228 0 0 1-3.304 2.157c-1.25.522-2.604.784-4.06.784Zm-.056-4.005c1.176 0 2.203-.26 3.08-.784a5.311 5.311 0 0 0 2.072-2.183c.485-.952.728-2.044.728-3.276 0-.934-.14-1.774-.42-2.52a5.502 5.502 0 0 0-1.204-1.96 4.972 4.972 0 0 0-1.876-1.26c-.71-.3-1.503-.448-2.38-.448-1.176 0-2.212.26-3.108.784a5.181 5.181 0 0 0-2.044 2.155c-.485.915-.728 1.998-.728 3.248 0 .934.14 1.783.42 2.549.28.765.672 1.427 1.176 1.988a5.445 5.445 0 0 0 1.876 1.26c.728.298 1.53.447 2.408.447ZM70.615 33V12.672h4.284V33h-4.284Zm6.741 0V12.672h4.284V33h-4.284Zm6.74 0V19.393h4.284v13.609h-4.284Zm2.156-15.483c-.672 0-1.232-.224-1.68-.672a2.394 2.394 0 0 1-.644-1.68c0-.672.215-1.232.644-1.68.448-.448 1.008-.672 1.68-.672.672 0 1.223.223 1.652.671.43.448.644 1.008.644 1.68 0 .654-.215 1.214-.644 1.68-.43.448-.98.672-1.652.672Zm11.137 15.791c-1.4 0-2.67-.308-3.808-.924a7.19 7.19 0 0 1-2.66-2.576c-.653-1.083-.98-2.296-.98-3.64 0-1.344.327-2.548.98-3.612a7.047 7.047 0 0 1 2.66-2.52c1.12-.635 2.39-.952 3.808-.952 1.419 0 2.688.308 3.808.924a6.976 6.976 0 0 1 2.66 2.548c.653 1.064.98 2.268.98 3.612 0 1.344-.327 2.557-.98 3.64a7.188 7.188 0 0 1-2.66 2.576c-1.12.616-2.39.924-3.808.924Zm0-3.892c.616 0 1.157-.13 1.624-.392.467-.28.821-.663 1.064-1.148.261-.504.392-1.073.392-1.708s-.131-1.185-.392-1.652a2.746 2.746 0 0 0-1.092-1.12c-.448-.28-.98-.42-1.596-.42-.597 0-1.13.14-1.596.42-.467.261-.83.635-1.092 1.12-.261.485-.392 1.045-.392 1.68 0 .616.13 1.176.392 1.68.261.485.625.868 1.092 1.148.467.261.999.392 1.596.392Z"/></svg>