<svg xmlns="http://www.w3.org/2000/svg" width="85" height="24" fill="none"><path fill="#171717" d="M5 7.5a2.5 2.5 0 1 1-5 0 2.5 2.5 0 0 1 5 0Zm0 9a2.5 2.5 0 1 1-5 0 2.5 2.5 0 0 1 5 0Zm9-9a2.5 2.5 0 1 1-5 0 2.5 2.5 0 0 1 5 0Zm0 9a2.5 2.5 0 1 1-5 0 2.5 2.5 0 0 1 5 0Zm13.06-9.611v2.038h-4.778v1.742h4.414v1.93h-4.415v3.902H20V6.889h7.06Zm6.506 8.773c-.666.666-1.552 1-2.66 1-1.106 0-1.993-.334-2.659-1-.666-.666-.999-1.548-.999-2.646 0-1.107.333-1.993 1-2.66.656-.656 1.543-.985 2.659-.985 1.116 0 2.002.329 2.66.986.656.657.985 1.543.985 2.66 0 1.106-.329 1.988-.986 2.645Zm-2.66-.688c.487 0 .86-.167 1.121-.5.261-.333.392-.819.392-1.458s-.13-1.125-.392-1.458c-.26-.333-.634-.5-1.12-.5-.495 0-.873.167-1.134.5-.261.333-.392.82-.392 1.458 0 .64.13 1.125.392 1.458.26.333.639.5 1.134.5Zm7.495 1.687c-1.026 0-1.84-.279-2.444-.837-.593-.567-.89-1.336-.89-2.308V9.533h2.119v4.01c0 .423.112.751.337.985.225.225.518.338.878.338s.652-.113.877-.338c.226-.234.338-.562.338-.985v-4.01h2.12v3.983c0 .98-.302 1.746-.905 2.295-.612.567-1.422.85-2.43.85Zm8.329-7.235c.036 0 .189.009.459.027v1.917h-.54c-1.233 0-1.85.63-1.85 1.89v3.24h-2.105V9.534h2.051v1.296c.325-.936.986-1.404 1.985-1.404Zm5.204-.055c.936 0 1.678.329 2.227.986.54.657.81 1.543.81 2.66 0 1.115-.27 2.002-.81 2.659-.549.657-1.291.985-2.227.985-.891 0-1.575-.337-2.052-1.012v3.496h-2.106V9.533h2.052v.932c.477-.73 1.179-1.094 2.106-1.094Zm-.58 5.603c.468 0 .832-.171 1.093-.513.26-.351.392-.85.392-1.499 0-1.269-.495-1.903-1.486-1.903-.998 0-1.498.652-1.498 1.957 0 1.305.5 1.958 1.498 1.958Zm10.307.688c-.666.666-1.552 1-2.659 1-1.107 0-1.994-.334-2.66-1-.666-.666-.998-1.548-.998-2.646 0-1.107.332-1.993.998-2.66.657-.656 1.544-.985 2.66-.985s2.002.329 2.66.986c.657.657.985 1.543.985 2.66 0 1.106-.328 1.988-.986 2.645Zm-2.659-.688c.486 0 .86-.167 1.12-.5.261-.333.392-.819.392-1.458s-.13-1.125-.392-1.458c-.26-.333-.634-.5-1.12-.5-.495 0-.873.167-1.134.5-.261.333-.392.82-.392 1.458 0 .64.131 1.125.392 1.458.261.333.639.5 1.134.5Zm5.358-6.17a1.09 1.09 0 0 1-.783-.31 1.074 1.074 0 0 1-.31-.77c0-.306.103-.562.31-.77a1.07 1.07 0 0 1 .783-.323c.297 0 .549.108.756.324.216.207.324.463.324.77 0 .296-.108.553-.324.769-.207.207-.459.31-.756.31Zm1.053 7.695h-2.106V9.533h2.106V16.5Zm12.372-6.965v1.54h-1.337v3.253c0 .234.059.396.176.486.117.08.324.121.621.121h.54V16.5a7.095 7.095 0 0 1-.972.054c-.873 0-1.503-.153-1.89-.459-.387-.315-.58-.828-.58-1.539v-3.483h-1.04V9.534h1.04V7.47h2.105v2.065h1.337Zm3.58 7.168c-1.097 0-1.916-.19-2.456-.567-.532-.387-.829-1.004-.892-1.85h2.053c.036.37.153.63.35.783.207.153.536.23.986.23.783 0 1.174-.225 1.174-.675a.537.537 0 0 0-.256-.486c-.171-.117-.486-.212-.945-.284l-.904-.148c-1.566-.243-2.35-.954-2.35-2.133 0-.702.27-1.242.81-1.62.54-.387 1.314-.58 2.322-.58 2.08 0 3.16.796 3.24 2.389H82.54c-.009-.657-.437-.986-1.283-.986-.71 0-1.066.22-1.066.662a.52.52 0 0 0 .243.459c.162.108.419.189.77.243l1.039.148c.837.126 1.454.365 1.85.716.395.35.593.832.593 1.444 0 .72-.292 1.278-.877 1.674-.576.387-1.39.58-2.444.58ZM69.704 9.371c-1.025 0-1.84.28-2.443.837-.594.567-.891 1.337-.891 2.309v3.982h2.12v-4.01c0-.422.112-.75.337-.985.225-.225.517-.337.877-.337s.653.112.878.337c.225.234.338.563.338.986v4.01h2.119v-3.983c0-.981-.302-1.746-.904-2.295-.613-.567-1.422-.85-2.43-.85Z"/></svg>