<svg xmlns="http://www.w3.org/2000/svg" width="149" height="36" fill="none"><g clip-path="url(#a)"><path stroke="#171717" stroke-linejoin="round" stroke-width="3" d="m20.6 2.508 7.62 4.219v8.437M20.6 2.508v8.437m0-8.437L1.128 12.633l.001 8.437m27.09-5.906-7.62-4.219m7.62 4.219L8.748 25.288 1.13 21.07M20.6 10.945 1.13 21.07"/><path stroke="#171717" stroke-linejoin="round" stroke-width="3" d="m8.75 33.726-7.621-4.219V21.07m7.62 12.656-.001-8.437m.001 8.437L28.22 23.6v-8.437M1.128 21.07l7.619 4.219M1.129 21.07 20.6 10.945l7.62 4.219M8.747 25.289l19.47-10.125" opacity=".5"/><path fill="#171717" d="M48.963 20.235c0 2.774-2.235 4.718-5.892 4.718-3.678 0-5.974-1.964-6.197-5.042h3.129c.081 1.6 1.117 2.633 3.007 2.633 1.564 0 2.682-.689 2.682-1.863 0-.912-.711-1.458-1.95-1.701l-2.398-.466c-2.215-.425-3.922-1.62-3.922-4.03 0-2.592 2.296-4.455 5.446-4.455 3.27 0 5.668 1.904 5.872 4.941h-3.13c-.101-1.519-1.157-2.551-2.702-2.551-1.503 0-2.357.85-2.357 1.863 0 .992.915 1.417 1.971 1.62l2.5.506c2.56.506 3.941 1.68 3.941 3.827Zm8.046 1.782v2.45c-.69.345-1.341.487-2.174.487-2.235 0-3.637-1.276-3.637-3.706v-4.9h-2.194v-2.41h2.194v-3.2h2.804v3.2h3.109v2.41H54V20.6c0 1.255.57 1.762 1.586 1.762a2.95 2.95 0 0 0 1.422-.345Zm7.475 2.733v-1.336c-.712 1.012-1.788 1.539-3.272 1.539-2.255 0-3.759-1.316-3.759-3.341 0-2.106 1.707-3.24 4.877-3.24.61 0 1.138.04 1.808.121v-.648c0-1.215-.69-1.924-1.87-1.924-1.218 0-1.95.71-2.051 1.924h-2.54c.162-2.49 1.97-4.11 4.592-4.11 2.844 0 4.51 1.559 4.51 4.211v6.804h-2.295Zm-4.369-3.22c0 .912.65 1.479 1.707 1.479 1.442 0 2.316-.79 2.316-2.045v-.77a10.384 10.384 0 0 0-1.625-.142c-1.605 0-2.398.507-2.398 1.479Zm12.857 3.423c-3.13 0-5.283-2.309-5.283-5.61 0-3.24 2.235-5.609 5.283-5.609 2.825 0 4.917 1.904 5.263 4.82h-2.967c-.142-1.438-1.016-2.329-2.296-2.329-1.463 0-2.398 1.195-2.398 3.119 0 1.944.915 3.118 2.398 3.118 1.3 0 2.133-.85 2.296-2.329h2.967c-.325 2.977-2.357 4.82-5.263 4.82Zm9.088-.203h-2.825V10.21h2.824v8.303l3.962-4.576h3.251l-4.49 5.184 5.018 5.63h-3.596l-4.145-5.023v5.022Zm18.431-5.406c0-3.2 1.889-5.61 4.815-5.61 1.3 0 2.398.567 3.21 1.6v-5.123h2.804v14.54h-2.58v-1.56c-.853 1.134-2.032 1.762-3.434 1.762-2.926 0-4.815-2.45-4.815-5.61Zm2.905 0c0 2.025 1.158 3.098 2.54 3.098 1.402 0 2.56-1.094 2.56-3.139s-1.178-3.078-2.56-3.078c-1.382 0-2.54 1.053-2.54 3.119Zm22.737 5.406h-9.428V10.21h3.089v11.766h6.339v2.774Zm7.525 0v-1.336c-.711 1.012-1.788 1.539-3.271 1.539-2.255 0-3.759-1.316-3.759-3.341 0-2.106 1.707-3.24 4.877-3.24.609 0 1.137.04 1.808.121v-.648c0-1.215-.691-1.924-1.869-1.924-1.22 0-1.951.71-2.053 1.924h-2.539c.162-2.49 1.971-4.11 4.592-4.11 2.844 0 4.51 1.559 4.51 4.211v6.804h-2.296Zm-4.368-3.22c0 .912.65 1.479 1.707 1.479 1.442 0 2.316-.79 2.316-2.045v-.77a10.391 10.391 0 0 0-1.626-.142c-1.605 0-2.397.507-2.397 1.479Zm19.115-2.186c0 3.159-1.89 5.609-4.816 5.609-1.402 0-2.58-.628-3.413-1.762v1.56h-2.601V10.21h2.824v5.123c.793-1.053 1.89-1.6 3.19-1.6 2.926 0 4.816 2.41 4.816 5.61Zm-2.906 0c0-2.066-1.158-3.119-2.539-3.119-1.362 0-2.54 1.033-2.54 3.078s1.138 3.139 2.54 3.139c1.381 0 2.539-1.073 2.539-3.098Zm-50.538 5.589c2.967 0 5.059-1.741 5.08-4.212h-2.743c-.082 1.235-.975 1.985-2.377 1.985-1.463 0-2.317-.73-2.317-1.944 0-1.195.996-1.904 2.682-1.904h1.483v-2.227h-1.32c-1.382 0-2.215-.689-2.215-1.803 0-1.073.711-1.741 1.89-1.741 1.158 0 1.89.729 1.91 1.924h2.743c-.02-2.37-2.093-4.152-4.796-4.152-2.885 0-4.652 1.56-4.652 3.767 0 1.255.731 2.248 2.052 2.936-1.707.547-2.682 1.64-2.682 3.119 0 2.53 2.113 4.252 5.262 4.252Z"/></g><defs><clipPath id="a"><path fill="#fff" d="M0 0h149v36H0z"/></clipPath></defs></svg>