<svg xmlns="http://www.w3.org/2000/svg" width="149" height="40" fill="none"><g fill="#fff" clip-path="url(#a)"><path d="M14.395 23.822v12.012h3.199v-12.01l8.578 8.492 2.262-2.24-8.58-8.492h12.133v-3.167H19.854l8.58-8.493-2.262-2.24-8.578 8.493V4.167h-3.2v12.012l-8.58-8.494-2.262 2.24 8.58 8.492H-.002v3.167h12.134l-8.58 8.493 2.262 2.239 8.58-8.495ZM40.407 27.5V11.167h5.916L49.599 25.4h.425V11.167h3.064V27.5h-5.916l-3.277-14.233h-.424V27.5h-3.064Zm20.269.327c-1.163 0-2.208-.233-3.135-.7a5.283 5.283 0 0 1-2.192-2.03c-.535-.886-.802-1.952-.802-3.196v-.374c0-1.244.267-2.31.802-3.196a5.282 5.282 0 0 1 2.192-2.03c.927-.467 1.972-.7 3.135-.7 1.162 0 2.207.233 3.134.7a5.282 5.282 0 0 1 2.193 2.03c.534.886.801 1.952.801 3.196v.374c0 1.244-.267 2.31-.801 3.196a5.283 5.283 0 0 1-2.193 2.03c-.927.467-1.972.7-3.134.7Zm0-2.613c.911 0 1.665-.288 2.262-.863.597-.592.896-1.432.896-2.52v-.234c0-1.089-.299-1.92-.896-2.496-.581-.592-1.335-.887-2.262-.887-.912 0-1.666.295-2.263.887-.597.575-.896 1.407-.896 2.496v.234c0 1.088.299 1.928.896 2.52.597.575 1.351.863 2.263.863Zm7.691 2.286V15.929h2.923v1.306h.424c.173-.467.456-.809.848-1.027.409-.217.88-.326 1.415-.326h1.414v2.613h-1.462c-.754 0-1.374.202-1.862.607-.487.389-.73.995-.73 1.82v6.58h-2.97Zm12.746.327c-1.524 0-2.773-.326-3.748-.98-.974-.653-1.563-1.586-1.767-2.8l2.734-.7c.11.545.29.972.542 1.284.267.31.59.536.966.676.393.125.817.187 1.273.187.691 0 1.202-.117 1.532-.35.33-.249.495-.552.495-.91s-.157-.63-.471-.817c-.315-.202-.817-.365-1.509-.49l-.66-.116a12.62 12.62 0 0 1-2.239-.63c-.676-.28-1.218-.662-1.626-1.144-.409-.482-.613-1.104-.613-1.866 0-1.152.424-2.03 1.273-2.637.848-.622 1.964-.933 3.347-.933 1.304 0 2.388.287 3.252.863.864.575 1.43 1.33 1.698 2.263l-2.758.84c-.126-.59-.385-1.01-.778-1.26-.377-.249-.849-.373-1.414-.373-.566 0-.998.101-1.297.303-.298.187-.448.451-.448.794 0 .373.157.653.472.84.314.17.738.303 1.273.396l.66.117c.88.155 1.673.365 2.38.63.723.249 1.288.614 1.697 1.097.425.466.637 1.104.637 1.913 0 1.213-.448 2.154-1.344 2.823-.88.654-2.066.98-3.559.98Zm11.653 0c-1.162 0-2.192-.24-3.087-.723a5.41 5.41 0 0 1-2.075-2.077c-.486-.902-.73-1.96-.73-3.173v-.28c0-1.213.244-2.263.73-3.15a5.052 5.052 0 0 1 2.051-2.077c.88-.498 1.902-.746 3.064-.746 1.148 0 2.145.256 2.994.77a5.133 5.133 0 0 1 1.98 2.1c.471.886.707 1.92.707 3.103v1.003h-8.51c.033.794.33 1.44.896 1.937.566.498 1.258.747 2.075.747.833 0 1.446-.18 1.838-.537.393-.358.692-.755.896-1.19l2.428 1.26c-.22.404-.543.848-.967 1.33-.408.467-.958.871-1.65 1.213-.69.327-1.57.49-2.64.49Zm-2.852-7.443h5.469c-.063-.669-.338-1.206-.825-1.61-.472-.405-1.092-.607-1.862-.607-.802 0-1.438.202-1.91.607-.471.404-.761.941-.872 1.61Zm20.391 7.444c-1.273 0-2.397-.226-3.371-.677-.974-.451-1.737-1.097-2.286-1.937-.55-.84-.825-1.851-.825-3.033v-.654h3.064v.654c0 .98.306 1.719.919 2.216.613.483 1.445.724 2.499.724 1.068 0 1.862-.21 2.38-.63.535-.42.802-.957.802-1.61 0-.451-.134-.817-.401-1.097-.252-.28-.629-.505-1.132-.676a12.702 12.702 0 0 0-1.791-.514l-.542-.117c-1.131-.248-2.105-.56-2.923-.933-.801-.389-1.422-.894-1.862-1.517-.424-.622-.636-1.43-.636-2.426 0-.996.235-1.844.707-2.544.487-.715 1.162-1.26 2.027-1.633.88-.389 1.909-.583 3.088-.583 1.178 0 2.223.202 3.135.607.926.388 1.65.98 2.168 1.773.535.778.802 1.758.802 2.94v.7h-3.065v-.7c0-.622-.125-1.12-.377-1.494a1.99 1.99 0 0 0-1.037-.84c-.455-.186-.997-.28-1.626-.28-.943 0-1.643.18-2.098.537-.44.342-.66.817-.66 1.424 0 .404.102.746.306 1.026.22.28.542.514.967.7.424.187.966.35 1.626.49l.542.117c1.179.249 2.2.568 3.064.956.88.39 1.564.903 2.051 1.54.487.638.731 1.455.731 2.45 0 .996-.26 1.875-.778 2.637-.503.747-1.226 1.338-2.169 1.774-.926.42-2.027.63-3.299.63Zm11.96-.328c-.769 0-1.398-.233-1.886-.7-.471-.482-.707-1.12-.707-1.913v-6.533h-2.922v-2.427h2.922v-3.593h2.97v3.593h3.206v2.427h-3.206v6.02c0 .467.221.7.66.7h2.263v2.427h-3.3Zm9.393.327a5.242 5.242 0 0 1-2.616-.676c-.802-.467-1.447-1.144-1.933-2.03-.488-.887-.731-1.96-.731-3.22v-.374c0-1.26.243-2.333.731-3.22.486-.886 1.131-1.555 1.933-2.006a5.185 5.185 0 0 1 2.616-.7c1.068 0 1.877.178 2.428.536.565.342.981.74 1.249 1.19h.424v-1.4h2.923v8.447c0 .467.22.7.66.7h.943V27.5h-2.357c-.566 0-1.037-.156-1.415-.467-.362-.311-.542-.739-.542-1.283v-.024h-.424c-.268.576-.7 1.074-1.296 1.494-.582.404-1.447.606-2.593.606Zm.896-2.566c.926 0 1.688-.288 2.286-.864.613-.59.919-1.446.919-2.566v-.234c0-1.12-.306-1.968-.919-2.543-.613-.591-1.376-.887-2.286-.887-.912 0-1.674.296-2.287.887-.613.575-.919 1.423-.919 2.543v.234c0 1.12.306 1.975.919 2.566.613.576 1.375.864 2.287.864Zm8.771 2.239V15.929h2.923v1.306h.424c.173-.467.456-.809.849-1.027.408-.217.879-.326 1.414-.326h1.414v2.613h-1.461c-.754 0-1.375.202-1.862.607-.488.389-.731.995-.731 1.82v6.58h-2.97Z"/></g><defs><clipPath id="a"><path fill="#fff" d="M0 0h149v40H0z"/></clipPath></defs></svg>