<svg xmlns="http://www.w3.org/2000/svg" width="167" height="48" fill="none"><path stroke="#fff" stroke-width="6" d="M19 40c8.837 0 16-7.163 16-16S27.837 8 19 8 3 15.163 3 24s7.163 16 16 16Z"/><path fill="#fff" d="M61.375 21.1a5.72 5.72 0 0 1-.7 2.8c-.467.833-1.183 1.508-2.15 2.024-.967.517-2.167.775-3.6.775h-2.65V33H48V15.45h6.925c1.4 0 2.583.242 3.55.725.967.483 1.692 1.15 2.175 2 .483.85.725 1.825.725 2.925ZM54.6 23.3c.817 0 1.425-.192 1.825-.576.4-.383.6-.925.6-1.625s-.2-1.241-.6-1.625c-.4-.383-1.008-.575-1.825-.575h-2.325v4.4H54.6Zm14.85 9.9c-1.366 0-2.6-.292-3.7-.875a6.513 6.513 0 0 1-2.575-2.5c-.616-1.084-.924-2.35-.924-3.8 0-1.434.316-2.692.95-3.775a6.423 6.423 0 0 1 2.6-2.525c1.1-.584 2.333-.875 3.7-.875 1.366 0 2.6.291 3.7.875a6.423 6.423 0 0 1 2.6 2.525c.633 1.083.95 2.341.95 3.775 0 1.433-.326 2.7-.976 3.8a6.429 6.429 0 0 1-2.625 2.5c-1.1.583-2.333.875-3.7.875Zm0-3.7c.817 0 1.509-.3 2.075-.9.584-.6.875-1.459.875-2.575 0-1.117-.283-1.975-.85-2.575-.55-.6-1.233-.9-2.05-.9-.833 0-1.525.3-2.075.9-.55.583-.825 1.441-.825 2.575 0 1.116.267 1.975.8 2.575.55.6 1.234.9 2.05.9Zm13.344-15V33h-4.275V14.5h4.275Zm16.848 4.55-8.75 20.576h-4.6l3.2-7.1-5.675-13.475h4.775l3.225 8.725 3.2-8.725h4.625Zm18.846-.15c1.733 0 3.108.525 4.125 1.575 1.033 1.05 1.549 2.509 1.549 4.375V33h-4.25v-7.575c0-.9-.241-1.591-.724-2.075-.467-.5-1.117-.75-1.95-.75-.834 0-1.492.25-1.975.75-.467.484-.701 1.175-.701 2.075V33h-4.25v-7.575c0-.9-.241-1.591-.724-2.075-.467-.5-1.117-.75-1.95-.75-.834 0-1.492.25-1.976.75-.466.484-.699 1.175-.699 2.075V33h-4.275V19.05h4.275v1.75c.433-.583 1-1.041 1.7-1.375.7-.35 1.491-.525 2.375-.525 1.05 0 1.983.225 2.8.675a4.814 4.814 0 0 1 1.949 1.925 5.627 5.627 0 0 1 1.975-1.875 5.34 5.34 0 0 1 2.726-.725Zm7.314 7.1c0-1.434.267-2.692.8-3.775.55-1.084 1.292-1.917 2.225-2.5.934-.584 1.975-.875 3.125-.875.984 0 1.842.2 2.575.6.75.4 1.325.925 1.725 1.575V19.05h4.275V33h-4.275v-1.975c-.416.65-1 1.175-1.75 1.575-.733.4-1.591.6-2.575.6a5.735 5.735 0 0 1-3.1-.875c-.933-.6-1.675-1.442-2.225-2.525-.533-1.1-.8-2.367-.8-3.8Zm10.45.025c0-1.067-.3-1.909-.9-2.525a2.843 2.843 0 0 0-2.15-.925c-.85 0-1.575.308-2.175.925-.583.6-.875 1.433-.875 2.5 0 1.066.292 1.916.875 2.55.6.616 1.325.925 2.175.925.85 0 1.567-.309 2.15-.925.6-.617.9-1.459.9-2.525Zm14.643 3.35V33h-2.175c-1.55 0-2.758-.375-3.625-1.125-.867-.766-1.3-2.008-1.3-3.725V22.6h-1.7v-3.55h1.7v-3.4h4.275v3.4h2.8v3.55h-2.8v5.6c0 .417.1.717.3.9.2.184.533.275 1 .275h1.525ZM161.351 18.9c1.6 0 2.884.533 3.85 1.6.967 1.05 1.45 2.5 1.45 4.35V33h-4.25v-7.575c0-.933-.241-1.658-.725-2.175-.483-.517-1.133-.775-1.95-.775-.816 0-1.466.258-1.95.775-.483.517-.725 1.242-.725 2.175V33h-4.275V14.5h4.275v6.425c.434-.617 1.025-1.108 1.775-1.475s1.592-.55 2.525-.55Z"/></svg>