<svg xmlns="http://www.w3.org/2000/svg" width="206" height="48" fill="none"><path fill="#fff" d="M10.5 16.5H3.2A3.2 3.2 0 0 0 0 19.7v2.8h11a5 5 0 0 0 5-5 5 5 0 0 1 5-5h19a4 4 0 0 0 4-4v-3H21.5A5.5 5.5 0 0 0 16 11a5.5 5.5 0 0 1-5.5 5.5Z"/><path fill="#fff" d="M10.5 26.5H3.2A3.2 3.2 0 0 0 0 29.7v2.8h11a5 5 0 0 0 5-5 5 5 0 0 1 5-5h13a4 4 0 0 0 4-4v-3H21.5A5.5 5.5 0 0 0 16 21a5.5 5.5 0 0 1-5.5 5.5Z" opacity=".75"/><path fill="#fff" d="M10.5 36.5H3.2A3.2 3.2 0 0 0 0 39.7v2.8h11a5 5 0 0 0 5-5 5 5 0 0 1 5-5h7.8a3.2 3.2 0 0 0 3.2-3.2v-3.8H21.5A5.5 5.5 0 0 0 16 31a5.5 5.5 0 0 1-5.5 5.5Z" opacity=".5"/><path fill="#fff" fill-rule="evenodd" d="M63.554 14.853c-1.049-.569-2.318-.853-3.807-.853H52v19.636h4.152V27.27h3.49c1.508 0 2.793-.278 3.854-.834 1.068-.556 1.883-1.333 2.445-2.33.563-.997.844-2.148.844-3.452 0-1.304-.278-2.454-.834-3.452-.55-1.003-1.35-1.786-2.397-2.349Zm-2.608 2.954c-.524-.275-1.19-.413-1.995-.413h-2.8v6.549h2.82c.799 0 1.457-.138 1.975-.413a2.733 2.733 0 0 0 1.17-1.16c.261-.498.392-1.07.392-1.716 0-.652-.13-1.22-.393-1.707a2.625 2.625 0 0 0-1.17-1.14Z" clip-rule="evenodd"/><path fill="#fff" d="M74.33 19.407c-.633.466-1.084 1.157-1.352 2.07h-.153v-2.569h-3.96v14.727h4.084v-8.332c.007-.6.14-1.128.403-1.582a2.835 2.835 0 0 1 1.064-1.064 2.906 2.906 0 0 1 1.496-.393c.281 0 .534.035.757.105.23.064.442.144.633.24l1.227-3.375a3.565 3.565 0 0 0-.91-.393 4.035 4.035 0 0 0-1.103-.144c-.825 0-1.553.237-2.186.71Z"/><path fill="#fff" fill-rule="evenodd" d="M85.684 33.923c-1.49 0-2.778-.316-3.864-.949a6.495 6.495 0 0 1-2.503-2.665c-.588-1.144-.882-2.47-.882-3.98 0-1.52.294-2.85.882-3.988a6.418 6.418 0 0 1 2.503-2.665c1.087-.64 2.375-.96 3.864-.96 1.49 0 2.774.32 3.854.96a6.4 6.4 0 0 1 2.512 2.665c.588 1.138.882 2.467.882 3.989 0 1.508-.294 2.835-.882 3.979a6.477 6.477 0 0 1-2.512 2.665c-1.08.633-2.365.95-3.854.95Zm.019-3.164c.678 0 1.243-.191 1.697-.575.454-.39.796-.92 1.026-1.591.236-.672.355-1.436.355-2.292 0-.856-.119-1.62-.355-2.292-.23-.67-.572-1.201-1.026-1.591-.454-.39-1.02-.585-1.697-.585-.684 0-1.26.195-1.726.585-.46.39-.808.92-1.045 1.591-.23.672-.345 1.436-.345 2.292 0 .857.115 1.62.345 2.292.237.67.585 1.201 1.045 1.591.467.384 1.042.575 1.726.575Z" clip-rule="evenodd"/><path fill="#fff" d="M100.648 19.465c-.716.498-1.227 1.179-1.534 2.042h-.173v-2.598h-3.893v14.727h4.085v-8.84c0-.544.105-1.017.316-1.42.211-.409.496-.725.854-.949.364-.23.773-.345 1.227-.345.671 0 1.211.214 1.62.643.416.428.624 1.003.624 1.726v9.185h3.959v-8.994c0-.767.208-1.384.624-1.85.415-.473.994-.71 1.735-.71.652 0 1.195.205 1.63.614.435.409.652 1.023.652 1.84v9.1h4.075V23.73c0-1.598-.431-2.831-1.294-3.7-.857-.876-1.972-1.314-3.347-1.314-1.08 0-2.016.256-2.809.767-.786.505-1.329 1.18-1.63 2.023h-.153a3.571 3.571 0 0 0-1.419-2.033c-.71-.505-1.57-.757-2.58-.757-.997 0-1.853.25-2.569.748Z"/><path fill="#fff" fill-rule="evenodd" d="M125.847 33.923c-1.515 0-2.819-.306-3.912-.92a6.302 6.302 0 0 1-2.512-2.627c-.588-1.138-.882-2.483-.882-4.037 0-1.515.294-2.844.882-3.988.588-1.145 1.416-2.036 2.483-2.675 1.074-.64 2.333-.96 3.778-.96.972 0 1.876.157 2.713.47a6.04 6.04 0 0 1 2.206 1.39c.633.62 1.125 1.4 1.476 2.34.352.934.528 2.027.528 3.28v1.121h-10.03v.01c0 .729.135 1.358.403 1.889.275.53.662.94 1.16 1.227.499.288 1.09.431 1.774.431.454 0 .869-.063 1.247-.191.377-.128.7-.32.968-.575.268-.256.473-.57.614-.94l3.777.25a5.155 5.155 0 0 1-1.179 2.377c-.588.671-1.349 1.195-2.282 1.572-.927.371-1.998.556-3.212.556Zm-2.857-10.585a3.19 3.19 0 0 0-.409 1.448h6.181c0-.588-.128-1.109-.384-1.563a2.741 2.741 0 0 0-1.064-1.064c-.447-.262-.968-.393-1.563-.393-.62 0-1.17.144-1.649.431a3.02 3.02 0 0 0-1.112 1.141Z" clip-rule="evenodd"/><path fill="#fff" d="M139.967 29.993c-.115-.21-.172-.505-.172-.882v-7.134h2.771V18.91h-2.771v-3.528h-4.085v3.528h-2.013v3.069h2.013v7.67c-.006.965.195 1.764.604 2.397.409.633.981 1.1 1.716 1.4.742.3 1.605.431 2.589.393a7.02 7.02 0 0 0 1.352-.163c.371-.083.658-.157.863-.22l-.642-3.04-.441.086a3.509 3.509 0 0 1-.576.048c-.275 0-.517-.041-.728-.124a.951.951 0 0 1-.48-.432Zm9.484-6.491c-.236.447-.357.987-.364 1.62v8.514h-4.084V14h3.969v7.508h.173c.332-.87.869-1.55 1.61-2.043.742-.498 1.672-.748 2.791-.748 1.022 0 1.914.224 2.675.672.767.44 1.361 1.077 1.783 1.908.428.824.639 1.812.633 2.962v9.377h-4.085v-8.648c.007-.908-.223-1.614-.69-2.119-.46-.505-1.106-.758-1.937-.758-.556 0-1.048.119-1.476.355a2.516 2.516 0 0 0-.998 1.036Z"/><path fill="#fff" fill-rule="evenodd" d="M164.111 33.003c1.093.614 2.397.92 3.912.92 1.214 0 2.285-.185 3.212-.556.933-.377 1.694-.9 2.282-1.572a5.165 5.165 0 0 0 1.179-2.378l-3.777-.25a2.498 2.498 0 0 1-.614.94 2.587 2.587 0 0 1-.969.576 3.857 3.857 0 0 1-1.246.192c-.684 0-1.275-.144-1.774-.432a2.951 2.951 0 0 1-1.16-1.227c-.268-.53-.403-1.16-.403-1.89v-.009h10.03v-1.122c0-1.252-.176-2.345-.528-3.279-.351-.94-.844-1.72-1.476-2.34a6.026 6.026 0 0 0-2.206-1.39 7.678 7.678 0 0 0-2.713-.47c-1.445 0-2.704.32-3.778.96-1.067.639-1.895 1.53-2.483 2.675-.588 1.144-.882 2.473-.882 3.988 0 1.554.294 2.9.882 4.037a6.302 6.302 0 0 0 2.512 2.627Zm.646-8.217a3.19 3.19 0 0 1 .409-1.448 3.02 3.02 0 0 1 1.112-1.14c.479-.288 1.029-.432 1.649-.432.594 0 1.115.13 1.563.393.454.256.808.61 1.064 1.064.256.454.384.975.384 1.563h-6.181Z" clip-rule="evenodd"/><path fill="#fff" d="M185.959 29.024c.269-.448.4-1 .393-1.66v-8.456h4.085v14.727h-3.922V30.96h-.153a4.35 4.35 0 0 1-1.659 2.081c-.767.524-1.703.786-2.809.786-.985 0-1.851-.224-2.599-.67-.747-.448-1.332-1.084-1.754-1.909-.416-.825-.627-1.812-.633-2.963v-9.377h4.085v8.649c.006.869.239 1.556.699 2.061.461.505 1.077.758 1.851.758a2.94 2.94 0 0 0 1.381-.336c.428-.23.773-.569 1.035-1.016Zm15.719-5.686 3.739-.23c-.179-1.355-.805-2.426-1.879-3.212-1.067-.786-2.531-1.18-4.391-1.18-1.259 0-2.359.186-3.298.557-.934.37-1.659.898-2.177 1.582-.511.684-.767 1.499-.767 2.445 0 1.1.348 2.004 1.045 2.713.703.71 1.774 1.208 3.212 1.496l2.551.508c.639.128 1.112.314 1.419.556.306.237.463.54.469.911-.006.441-.23.802-.671 1.084-.434.274-1.01.412-1.726.412-.728 0-1.326-.153-1.793-.46-.466-.314-.76-.767-.882-1.362l-4.017.211c.198 1.406.872 2.519 2.023 3.337 1.157.812 2.71 1.217 4.66 1.217 1.278 0 2.406-.2 3.384-.604.985-.409 1.758-.977 2.321-1.706.569-.729.853-1.576.853-2.541 0-1.061-.352-1.918-1.055-2.57-.703-.652-1.77-1.125-3.202-1.419l-2.666-.537c-.684-.147-1.166-.342-1.447-.584a1.133 1.133 0 0 1-.422-.892c0-.441.217-.793.652-1.055.434-.268.968-.403 1.601-.403.473 0 .879.08 1.218.24.345.154.623.361.834.623.211.256.348.544.412.863Z"/></svg>