<svg xmlns="http://www.w3.org/2000/svg" width="105" height="24" fill="none"><path fill="#171717" d="m4.64 8.607 7.284-4.286-4.37-2.571L.269 6.036v8.57l4.37 2.572v-8.57Zm11.77.287v8.571l-7.284 4.286-4.37-2.572 7.284-4.285V6.322l4.37 2.572Zm8.676 7.728c-1.307 0-2.301-.297-2.981-.891-.671-.594-1.007-1.368-1.007-2.322h2.093c.018.486.177.877.477 1.174.31.288.808.432 1.497.432.53 0 .954-.099 1.272-.297.318-.198.477-.49.477-.877 0-.315-.066-.558-.199-.73-.132-.18-.362-.319-.689-.418a11.73 11.73 0 0 0-1.364-.297c-1.113-.18-1.952-.486-2.517-.918-.566-.44-.848-1.089-.848-1.944 0-.927.335-1.656 1.007-2.187.67-.54 1.594-.81 2.768-.81.76 0 1.413.122 1.961.365s.972.585 1.272 1.026c.309.44.463.954.463 1.539h-2.08c-.017-.477-.19-.82-.516-1.026-.318-.207-.707-.31-1.166-.31-.486 0-.87.103-1.152.31a.96.96 0 0 0-.411.823c0 .306.08.536.238.689.16.153.407.27.742.35.345.082.795.172 1.352.27.406.064.803.15 1.192.257a3.4 3.4 0 0 1 1.046.486c.318.207.57.5.755.878.195.369.292.85.292 1.444 0 .882-.336 1.602-1.007 2.16-.662.55-1.651.824-2.967.824Zm5.045-.122V6.658h1.947v3.915h.08c.194-.477.495-.837.9-1.08a2.607 2.607 0 0 1 1.365-.364c.477 0 .901.099 1.272.297.38.198.68.517.901.958.22.432.331 1.013.331 1.742V16.5H34.98v-3.942c0-.612-.106-1.067-.318-1.364-.212-.297-.552-.445-1.02-.445-.504 0-.892.175-1.166.526a1.906 1.906 0 0 0-.398 1.202V16.5h-1.947Zm10.466.121c-.821 0-1.448-.243-1.881-.729-.433-.486-.65-1.192-.65-2.12V9.265h1.948v3.982c0 .576.102 1.017.305 1.323.212.297.56.446 1.046.446.495 0 .875-.171 1.14-.513a1.96 1.96 0 0 0 .41-1.242V9.264h1.948V16.5h-1.868l-.08-1.323h-.092a2.04 2.04 0 0 1-.861 1.08 2.563 2.563 0 0 1-1.365.364Zm7.947-.121c-.477 0-.847-.073-1.112-.216a1.19 1.19 0 0 1-.557-.608 2.79 2.79 0 0 1-.146-.945v-3.874h-1.271V9.264h1.271V7.293l1.935-.19v2.16h2.49v-1.97l1.934-.19v2.16h1.431v1.594h-1.43v3.496c0 .216.048.36.145.432.097.072.238.108.424.108h.861V16.5h-1.55c-.477 0-.848-.073-1.113-.216a1.19 1.19 0 0 1-.556-.608 2.79 2.79 0 0 1-.146-.945v-3.874h-2.49v3.496c0 .216.048.36.145.432.098.072.239.108.424.108h.861V16.5h-1.55Zm9.844.121c-.741 0-1.377-.153-1.907-.459a3.1 3.1 0 0 1-1.206-1.282c-.282-.558-.424-1.206-.424-1.944 0-.783.142-1.458.424-2.025a3.148 3.148 0 0 1 1.219-1.31c.521-.315 1.13-.472 1.828-.472.821 0 1.497.184 2.027.553.53.36.91.86 1.14 1.499.229.63.304 1.345.225 2.146h-4.942c-.009.576.137 1.022.437 1.337.3.306.694.459 1.18.459.37 0 .684-.081.94-.243a1.11 1.11 0 0 0 .503-.675h1.842a2.412 2.412 0 0 1-.543 1.269c-.292.36-.672.643-1.14.85-.468.198-1.002.297-1.603.297Zm-.066-5.994c-.442 0-.8.13-1.073.392-.274.252-.428.598-.464 1.04h3.02c-.026-.487-.18-.847-.463-1.08-.274-.235-.614-.352-1.02-.352ZM62.72 16.5V9.264h1.763l.08 1.161h.066c.158-.468.41-.792.755-.972a2.515 2.515 0 0 1 1.205-.283h.398v1.863h-.438c-.653 0-1.126.148-1.417.445-.292.288-.446.702-.464 1.242v3.78h-1.947Zm5.75 0v-5.643h-1.165V9.264h1.165v-.77c0-.594.181-1.048.543-1.363.363-.315.875-.473 1.537-.473h1.431v1.337h-.861c-.274 0-.46.058-.556.175a.674.674 0 0 0-.146.446v.648h1.444v1.593h-1.444V16.5H68.47Zm4.148 0V9.264h1.762l.08 1.161h.066c.159-.468.41-.792.755-.972a2.515 2.515 0 0 1 1.206-.283h.397v1.863h-.437c-.654 0-1.126.148-1.418.445-.291.288-.446.702-.463 1.242v3.78h-1.948Zm7.309.121c-.848 0-1.533-.31-2.054-.931-.52-.63-.781-1.566-.781-2.808 0-1.251.26-2.187.781-2.808.521-.63 1.206-.945 2.054-.945.547 0 1.015.126 1.404.378.397.252.68.59.848 1.012h.106l.08-1.255h1.867V16.5h-1.947v-1.27h-.106a2.17 2.17 0 0 1-.848 1.013c-.389.252-.857.378-1.404.378Zm.741-1.606c.362 0 .658-.086.888-.257.239-.17.415-.391.53-.661.115-.28.172-.572.172-.878v-.688a2.22 2.22 0 0 0-.172-.878 1.541 1.541 0 0 0-.53-.661c-.23-.171-.525-.257-.888-.257-.477 0-.86.176-1.152.527-.292.342-.437.882-.437 1.62 0 .729.145 1.269.437 1.62.291.342.675.513 1.152.513Zm4.965 1.485V9.264h1.882l.066 1.31h.08c.176-.478.463-.838.86-1.08a2.466 2.466 0 0 1 1.312-.365c.495 0 .945.121 1.351.364s.707.662.901 1.256h.106c.168-.54.464-.945.888-1.215.432-.27.918-.405 1.457-.405.46 0 .87.099 1.232.297.362.198.649.517.861.958.22.432.331 1.013.331 1.742V16.5h-1.947v-3.942c0-.612-.102-1.067-.305-1.364-.194-.297-.512-.445-.954-.445-.468 0-.834.175-1.1.526a1.949 1.949 0 0 0-.383 1.202V16.5h-1.948v-3.942c0-.612-.101-1.067-.305-1.364-.194-.297-.512-.445-.953-.445-.477 0-.844.175-1.1.526a1.949 1.949 0 0 0-.384 1.202V16.5h-1.948Zm15.773.121c-.742 0-1.378-.153-1.908-.459a3.1 3.1 0 0 1-1.205-1.282c-.283-.558-.424-1.206-.424-1.944 0-.783.141-1.458.424-2.025a3.148 3.148 0 0 1 1.219-1.31c.521-.315 1.13-.472 1.828-.472.821 0 1.497.184 2.027.553.53.36.909.86 1.139 1.499.23.63.305 1.345.225 2.146H99.79c-.009.576.137 1.022.437 1.337.3.306.693.459 1.179.459.371 0 .684-.081.941-.243.265-.171.432-.396.503-.675h1.841a2.4 2.4 0 0 1-.543 1.269c-.291.36-.671.643-1.139.85-.468.198-1.002.297-1.603.297Zm-.066-5.994c-.442 0-.799.13-1.073.392-.274.252-.429.598-.464 1.04h3.021c-.027-.487-.182-.847-.464-1.08-.274-.235-.614-.352-1.02-.352Z"/></svg>